<svg width="129" height="38" viewBox="0 0 129 38" fill="none" xmlns="http://www.w3.org/2000/svg">
<path fill-rule="evenodd" clip-rule="evenodd" d="M16.0513 5.69702H28.3264C37.1913 5.69702 44.3778 12.9283 44.3778 21.8485C44.3778 30.7687 37.1914 38 28.3264 38H16.0513C7.18643 38 0 30.7687 0 21.8485C0 12.9283 7.18643 5.69702 16.0513 5.69702ZM16.0513 12.2319C10.7731 12.2319 6.49431 16.5374 6.49431 21.8485C6.49431 27.1597 10.7731 31.4652 16.0513 31.4652H28.3264C33.6046 31.4652 37.8835 27.1597 37.8835 21.8485C37.8835 16.5374 33.6046 12.2319 28.3264 12.2319H16.0513Z" fill="#118DFF"/>
<path d="M34.3956 3.68492C34.3956 5.72004 32.7561 7.36983 30.7336 7.36983C28.7111 7.36983 27.0715 5.72004 27.0715 3.68492C27.0715 1.64979 28.7111 0 30.7336 0C32.7561 0 34.3956 1.64979 34.3956 3.68492Z" fill="#118DFF"/>
<path d="M18.8758 21.8829C18.8758 23.918 17.2362 25.5678 15.2137 25.5678C13.1912 25.5678 11.5516 23.918 11.5516 21.8829C11.5516 19.8477 13.1912 18.1979 15.2137 18.1979C17.2362 18.1979 18.8758 19.8477 18.8758 21.8829Z" fill="#001624"/>
<path d="M32.8262 21.8829C32.8262 23.918 31.1866 25.5678 29.1641 25.5678C27.1416 25.5678 25.5021 23.918 25.5021 21.8829C25.5021 19.8477 27.1416 18.1979 29.1641 18.1979C31.1866 18.1979 32.8262 19.8477 32.8262 21.8829Z" fill="#001624"/>
<path d="M16.0855 2.80756C16.0855 4.16431 14.9925 5.26418 13.6442 5.26418C12.2958 5.26418 11.2028 4.16431 11.2028 2.80756C11.2028 1.45081 12.2958 0.350952 13.6442 0.350952C14.9925 0.350952 16.0855 1.45081 16.0855 2.80756Z" fill="#118DFF"/>
<rect x="73.9562" y="21.0942" width="11.291" height="11.3258" rx="5.64551" fill="#64B5FF"/>
<rect x="90.1871" y="9.76849" width="4.51641" height="22.6515" rx="2.25821" fill="#64B5FF"/>
<rect x="85.2473" y="15.4314" width="14.3961" height="3.5393" rx="1.76965" fill="#118DFF"/>
<rect x="117.286" y="11.4674" width="4.51641" height="20.9527" rx="2.25821" fill="#577F9A"/>
<rect x="110.229" y="9.76849" width="18.7713" height="5.66288" rx="2.83144" fill="#00406B"/>
<rect x="102.89" y="9.76849" width="4.51641" height="22.6515" rx="2.25821" fill="#00406B"/>
<path d="M54.9026 9.76849H66.0352C69.1627 9.76849 71.6981 12.3039 71.6981 15.4314C71.6981 18.5589 69.1627 21.0943 66.0352 21.0943H54.9026V9.76849Z" fill="#118DFF"/>
<path d="M54.9026 21.0943H66.0352C69.1627 21.0943 71.6981 23.6297 71.6981 26.7572C71.6981 29.8847 69.1627 32.4201 66.0352 32.4201H54.9026V21.0943Z" fill="#64B5FF"/>
</svg>
