<svg width="117" height="34" viewBox="0 0 117 34" fill="none" xmlns="http://www.w3.org/2000/svg">
<path fill-rule="evenodd" clip-rule="evenodd" d="M14.5582 5.09732H25.6914C33.7317 5.09732 40.2496 11.5674 40.2496 19.5487C40.2496 27.5299 33.7317 34 25.6914 34H14.5582C6.51793 34 0 27.5299 0 19.5487C0 11.5674 6.51792 5.09732 14.5582 5.09732ZM14.5582 10.9443C9.77099 10.9443 5.89019 14.7966 5.89019 19.5487C5.89019 24.3007 9.77099 28.153 14.5582 28.153H25.6914C30.4786 28.153 34.3594 24.3007 34.3594 19.5487C34.3594 14.7966 30.4786 10.9443 25.6914 10.9443H14.5582Z" fill="white"/>
<path d="M31.1961 3.29703C31.1961 5.11793 29.709 6.59406 27.8747 6.59406C26.0403 6.59406 24.5533 5.11793 24.5533 3.29703C24.5533 1.47613 26.0403 0 27.8747 0C29.709 0 31.1961 1.47613 31.1961 3.29703Z" fill="white"/>
<path d="M17.1199 19.5794C17.1199 21.4003 15.6328 22.8764 13.7985 22.8764C11.9641 22.8764 10.4771 21.4003 10.4771 19.5794C10.4771 17.7585 11.9641 16.2823 13.7985 16.2823C15.6328 16.2823 17.1199 17.7585 17.1199 19.5794Z" fill="#001624"/>
<path d="M29.7726 19.5794C29.7726 21.4003 28.2855 22.8764 26.4512 22.8764C24.6168 22.8764 23.1298 21.4003 23.1298 19.5794C23.1298 17.7585 24.6168 16.2823 26.4512 16.2823C28.2855 16.2823 29.7726 17.7585 29.7726 19.5794Z" fill="#001624"/>
<path d="M14.5892 2.51202C14.5892 3.72595 13.5978 4.71004 12.3749 4.71004C11.152 4.71004 10.1606 3.72595 10.1606 2.51202C10.1606 1.29808 11.152 0.313995 12.3749 0.313995C13.5978 0.313995 14.5892 1.29808 14.5892 2.51202Z" fill="white"/>
<rect x="67.0765" y="18.8738" width="10.2407" height="10.1336" rx="5.06679" fill="#E9E9E9"/>
<rect x="81.7975" y="8.74017" width="4.09628" height="20.2672" rx="2.04814" fill="#E9E9E9"/>
<rect x="77.3173" y="13.807" width="13.0569" height="3.16674" rx="1.58337" fill="white"/>
<rect x="106.375" y="10.2603" width="4.09628" height="18.7471" rx="2.04814" fill="#577F9A"/>
<rect x="99.9749" y="8.74017" width="17.0252" height="5.06679" rx="2.53339" fill="#00406B"/>
<rect x="93.3185" y="8.74017" width="4.09628" height="20.2672" rx="2.04814" fill="#00406B"/>
<path d="M49.7954 8.74017H59.9617C62.76 8.74017 65.0285 11.0087 65.0285 13.807C65.0285 16.6053 62.76 18.8738 59.9617 18.8738H49.7954V8.74017Z" fill="white"/>
<path d="M49.7954 18.8738H59.9617C62.76 18.8738 65.0285 21.1423 65.0285 23.9406C65.0285 26.7389 62.76 29.0074 59.9617 29.0074H49.7954V18.8738Z" fill="#E9E9E9"/>
</svg>
