<svg width="117" height="36" viewBox="0 0 117 36" fill="none" xmlns="http://www.w3.org/2000/svg">
<path d="M58.386 13.6H65.624C67.164 13.6 68.418 13.996 69.386 14.788C70.354 15.5653 70.838 16.5773 70.838 17.824C70.838 18.4987 70.6693 19.1147 70.332 19.672C69.9947 20.2293 69.5327 20.6913 68.946 21.058C69.6793 21.41 70.266 21.894 70.706 22.51C71.146 23.1113 71.366 23.786 71.366 24.534C71.366 25.8687 70.8673 26.9467 69.87 27.768C68.8873 28.5893 67.5893 29 65.976 29H58.386V13.6ZM65.426 16.24H61.576V19.892H65.426C66.1007 19.892 66.6433 19.7307 67.054 19.408C67.4647 19.0707 67.67 18.6233 67.67 18.066C67.67 17.5087 67.4647 17.0687 67.054 16.746C66.6433 16.4087 66.1007 16.24 65.426 16.24ZM65.734 26.36C66.4673 26.36 67.054 26.184 67.494 25.832C67.934 25.4653 68.154 24.974 68.154 24.358C68.154 23.7713 67.934 23.2947 67.494 22.928C67.054 22.5613 66.4673 22.378 65.734 22.378H61.576V26.36H65.734ZM72.8709 23.28C72.8709 22.444 73.0249 21.6667 73.3329 20.948C73.6556 20.2147 74.0883 19.584 74.6309 19.056C75.1883 18.5133 75.8409 18.088 76.5889 17.78C77.3369 17.472 78.1363 17.318 78.9869 17.318C79.8376 17.318 80.6369 17.472 81.3849 17.78C82.1329 18.088 82.7783 18.5133 83.3209 19.056C83.8783 19.584 84.3109 20.2147 84.6189 20.948C84.9416 21.6667 85.1029 22.444 85.1029 23.28C85.1029 24.116 84.9416 24.9007 84.6189 25.634C84.3109 26.3527 83.8783 26.976 83.3209 27.504C82.7783 28.032 82.1329 28.45 81.3849 28.758C80.6369 29.066 79.8376 29.22 78.9869 29.22C78.1363 29.22 77.3369 29.066 76.5889 28.758C75.8409 28.45 75.1883 28.032 74.6309 27.504C74.0883 26.976 73.6556 26.3527 73.3329 25.634C73.0249 24.9007 72.8709 24.116 72.8709 23.28ZM78.9869 26.602C79.8669 26.602 80.6149 26.2793 81.2309 25.634C81.8469 24.9887 82.1549 24.204 82.1549 23.28C82.1549 22.3413 81.8469 21.5493 81.2309 20.904C80.6149 20.2587 79.8669 19.936 78.9869 19.936C78.1069 19.936 77.3589 20.2587 76.7429 20.904C76.1269 21.5493 75.8189 22.3413 75.8189 23.28C75.8189 24.204 76.1269 24.9887 76.7429 25.634C77.3589 26.2793 78.1069 26.602 78.9869 26.602ZM87.959 25.766V20.068H85.605V17.538H87.959V14.612L90.973 13.93V17.538H94.229V20.068H90.973V25.15C90.973 25.6927 91.0903 26.074 91.325 26.294C91.5597 26.514 91.9703 26.624 92.557 26.624C92.8357 26.624 93.0997 26.6093 93.349 26.58C93.5983 26.536 93.8697 26.4627 94.163 26.36V28.824C93.8403 28.9267 93.4517 29.0073 92.997 29.066C92.5423 29.1393 92.1537 29.176 91.831 29.176C90.555 29.176 89.587 28.89 88.927 28.318C88.2817 27.7313 87.959 26.8807 87.959 25.766Z" fill="#118DFF"/>
<path d="M96.0452 29V12.2H99.5252V29H96.0452ZM101.504 15.272V12.2H116.288V15.272H110.648V29H107.168V15.272H101.504Z" fill="#00406B"/>
<path fill-rule="evenodd" clip-rule="evenodd" d="M14.8296 5.24725H26.1704C34.3606 5.24725 41 11.9076 41 20.1236C41 28.3396 34.3606 35 26.1704 35H14.8296C6.63944 35 0 28.3396 0 20.1236C0 11.9076 6.63944 5.24725 14.8296 5.24725ZM14.8296 11.2662C9.95315 11.2662 6 15.2318 6 20.1236C6 25.0155 9.95315 28.9811 14.8296 28.9811H26.1704C31.0469 28.9811 35 25.0155 35 20.1236C35 15.2318 31.0468 11.2662 26.1704 11.2662H14.8296Z" fill="#118DFF"/>
<path d="M31.7778 3.394C31.7778 5.26846 30.263 6.788 28.3944 6.788C26.5259 6.788 25.0111 5.26846 25.0111 3.394C25.0111 1.51955 26.5259 0 28.3944 0C30.263 0 31.7778 1.51955 31.7778 3.394Z" fill="#118DFF"/>
<path d="M17.4389 20.1552C17.4389 22.0297 15.9241 23.5492 14.0555 23.5492C12.187 23.5492 10.6722 22.0297 10.6722 20.1552C10.6722 18.2808 12.187 16.7612 14.0555 16.7612C15.9241 16.7612 17.4389 18.2808 17.4389 20.1552Z" fill="#001624"/>
<path d="M30.3278 20.1552C30.3278 22.0297 28.813 23.5492 26.9444 23.5492C25.0759 23.5492 23.5611 22.0297 23.5611 20.1552C23.5611 18.2808 25.0759 16.7612 26.9444 16.7612C28.813 16.7612 30.3278 18.2808 30.3278 20.1552Z" fill="#001624"/>
<path d="M14.8611 2.58487C14.8611 3.83451 13.8512 4.84754 12.6055 4.84754C11.3598 4.84754 10.35 3.83451 10.35 2.58487C10.35 1.33524 11.3598 0.322205 12.6055 0.322205C13.8512 0.322205 14.8611 1.33524 14.8611 2.58487Z" fill="#118DFF"/>
</svg>
