<svg width="666" height="1048" viewBox="0 0 666 1048" fill="none" xmlns="http://www.w3.org/2000/svg">
<mask id="mask0" mask-type="alpha" maskUnits="userSpaceOnUse" x="0" y="0" width="666" height="1048">
<rect width="666" height="1048" fill="#C4C4C4"/>
</mask>
<g mask="url(#mask0)">
<rect x="55.7612" y="882.844" width="855.765" height="912.958" rx="48" transform="rotate(-75 55.7612 882.844)" fill="#5BA5E9"/>
<rect x="-6" y="779.85" width="936.239" height="912.958" rx="48" transform="rotate(-75 -6 779.85)" fill="#3490E4"/>
</g>
<path d="M552.439 486.754C552.439 484.979 551.737 483.275 550.487 482.013L454.523 385.207C453.896 384.575 453.151 384.074 452.33 383.732C451.509 383.389 450.629 383.213 449.739 383.213H294.007C293.123 383.213 292.247 383.388 291.43 383.726C290.613 384.064 289.87 384.56 289.245 385.186L194.964 479.467C194.338 480.092 193.842 480.835 193.504 481.652C193.166 482.469 192.991 483.345 192.991 484.229V571.355C192.991 573.101 193.669 574.778 194.882 576.034L242.444 625.279C243.068 625.925 243.816 626.44 244.642 626.793C245.469 627.146 246.357 627.33 247.256 627.334L372.383 627.908L417.132 692.258C417.752 693.15 418.578 693.879 419.541 694.382C420.504 694.885 421.574 695.148 422.661 695.148H523.818C525.237 695.147 526.62 694.698 527.769 693.864C528.918 693.03 529.774 691.855 530.215 690.505L552.102 623.534C552.32 622.858 552.429 622.152 552.425 621.442H552.439V486.754ZM431.557 473.808L530.636 490.98L477.32 537.575L431.557 473.808ZM463.049 540.787H392.185L418.08 478.133L463.049 540.787ZM380.836 532.988L341.366 471.097H406.416L380.836 532.988ZM369.834 540.787H294.241L329.477 477.501L369.834 540.787ZM280.681 537.452L216.414 488.479L316.504 473.105L280.681 537.452ZM374.794 554.256L370.26 608.131L302.158 554.26L374.794 554.256ZM388.31 554.256H455.632L383.865 606.989L388.31 554.256ZM538.97 501.583V604.45L485.863 547.991L538.97 501.583ZM426.169 459.203L451.879 401.67L526.076 476.517L426.169 459.203ZM412.119 457.628H333.354L304.626 396.682H439.354L412.119 457.628ZM319.146 459.076L219.027 474.452L291.998 401.48L319.146 459.076ZM268.033 544.75L206.46 562.417V497.827L268.033 544.75ZM270.129 558.161L245.435 608.992L212.353 574.737L270.129 558.161ZM285.178 558.005L356.432 614.368L258.021 613.917L285.178 558.005ZM475.353 556.481L530.102 614.686L396.41 614.488L475.353 556.481ZM388.816 627.95L519.321 628.143L424.743 679.61L388.816 627.95ZM518.935 681.679H449.12L534.039 635.459L518.935 681.679Z" fill="white"/>
<path d="M538.97 507.799C550.128 507.799 559.173 498.754 559.173 487.596C559.173 476.438 550.128 467.393 538.97 467.393C527.812 467.393 518.767 476.438 518.767 487.596C518.767 498.754 527.812 507.799 538.97 507.799Z" fill="#556F8C"/>
<path d="M370.611 642.487C381.768 642.487 390.814 633.442 390.814 622.284C390.814 611.126 381.768 602.081 370.611 602.081C359.453 602.081 350.407 611.126 350.407 622.284C350.407 633.442 359.453 642.487 370.611 642.487Z" fill="#556F8C"/>
<path d="M417.751 709.831C428.909 709.831 437.954 700.785 437.954 689.627C437.954 678.47 428.909 669.424 417.751 669.424C406.593 669.424 397.548 678.47 397.548 689.627C397.548 700.785 406.593 709.831 417.751 709.831Z" fill="#556F8C"/>
<path d="M518.767 709.831C529.925 709.831 538.97 700.785 538.97 689.627C538.97 678.47 529.925 669.424 518.767 669.424C507.609 669.424 498.564 678.47 498.564 689.627C498.564 700.785 507.609 709.831 518.767 709.831Z" fill="#556F8C"/>
<path d="M538.97 642.487C550.128 642.487 559.173 633.442 559.173 622.284C559.173 611.126 550.128 602.081 538.97 602.081C527.812 602.081 518.767 611.126 518.767 622.284C518.767 633.442 527.812 642.487 538.97 642.487Z" fill="#556F8C"/>
<path d="M377.345 568.409C388.503 568.409 397.548 559.363 397.548 548.206C397.548 537.048 388.503 528.002 377.345 528.002C366.187 528.002 357.142 537.048 357.142 548.206C357.142 559.363 366.187 568.409 377.345 568.409Z" fill="#556F8C"/>
<path d="M289.798 413.518C300.956 413.518 310.001 404.473 310.001 393.315C310.001 382.157 300.956 373.112 289.798 373.112C278.64 373.112 269.595 382.157 269.595 393.315C269.595 404.473 278.64 413.518 289.798 413.518Z" fill="#556F8C"/>
<path d="M444.689 413.518C455.847 413.518 464.892 404.473 464.892 393.315C464.892 382.157 455.847 373.112 444.689 373.112C433.531 373.112 424.486 382.157 424.486 393.315C424.486 404.473 433.531 413.518 444.689 413.518Z" fill="#556F8C"/>
<path d="M195.517 507.799C206.675 507.799 215.72 498.754 215.72 487.596C215.72 476.438 206.675 467.393 195.517 467.393C184.359 467.393 175.314 476.438 175.314 487.596C175.314 498.754 184.359 507.799 195.517 507.799Z" fill="#556F8C"/>
<path d="M195.517 595.346C206.675 595.346 215.72 586.301 215.72 575.143C215.72 563.985 206.675 554.94 195.517 554.94C184.359 554.94 175.314 563.985 175.314 575.143C175.314 586.301 184.359 595.346 195.517 595.346Z" fill="#556F8C"/>
<path d="M242.657 642.487C253.815 642.487 262.861 633.442 262.861 622.284C262.861 611.126 253.815 602.081 242.657 602.081C231.5 602.081 222.454 611.126 222.454 622.284C222.454 633.442 231.5 642.487 242.657 642.487Z" fill="#556F8C"/>
<path d="M323.47 487.596C334.628 487.596 343.673 478.551 343.673 467.393C343.673 456.235 334.628 447.19 323.47 447.19C312.312 447.19 303.267 456.235 303.267 467.393C303.267 478.551 312.312 487.596 323.47 487.596Z" fill="#556F8C"/>
<path d="M411.017 487.596C422.175 487.596 431.22 478.551 431.22 467.393C431.22 456.235 422.175 447.19 411.017 447.19C399.859 447.19 390.814 456.235 390.814 467.393C390.814 478.551 399.859 487.596 411.017 487.596Z" fill="#556F8C"/>
<path d="M276.329 568.409C287.487 568.409 296.532 559.363 296.532 548.206C296.532 537.048 287.487 528.002 276.329 528.002C265.171 528.002 256.126 537.048 256.126 548.206C256.126 559.363 265.171 568.409 276.329 568.409Z" fill="#556F8C"/>
<path d="M471.626 568.409C482.784 568.409 491.829 559.363 491.829 548.206C491.829 537.048 482.784 528.002 471.626 528.002C460.468 528.002 451.423 537.048 451.423 548.206C451.423 559.363 460.468 568.409 471.626 568.409Z" fill="#556F8C"/>
</svg>
