<svg width="52" height="40" viewBox="0 0 52 40" fill="none" xmlns="http://www.w3.org/2000/svg">
<path fill-rule="evenodd" clip-rule="evenodd" d="M36.4596 21.6896C36.8894 21.9681 37.267 22.2127 37.7799 22.3879C40.5565 23.3368 43.8514 24.3035 46.6459 22.7212C48.838 21.4799 50.0383 18.7274 50.3077 16.206C50.5473 13.9589 50.1337 10.4521 49.2256 8.22296C49.0495 7.79126 48.4286 7.17667 47.9188 7.30451L46.2452 9.15641L46.137 9.19483C46.1313 9.1995 46.1255 9.20414 46.1198 9.20875C45.8564 9.41935 45.5301 9.53628 45.2203 9.64731C44.5931 9.87208 44.0334 10.0727 44.2 10.9773C44.3813 11.9625 44.4337 13.0627 44.2265 13.9795C44.1956 14.1167 44.1644 14.2629 44.1321 14.4142C43.9574 15.2341 43.7507 16.2033 43.3684 16.702C43.5031 16.2025 43.7283 14.8974 43.7908 14.0182C43.8249 13.5364 43.7713 12.9554 43.683 12.3706L43.3819 12.3773C43.0162 12.3854 42.4204 12.9169 42.2598 13.2488C42.0533 13.676 41.9357 14.0888 41.8197 14.496C41.6845 14.9704 41.5515 15.4374 41.2825 15.9103C41.4914 15.4016 41.5311 14.9187 41.5717 14.4252C41.6096 13.965 41.6482 13.4957 41.8255 12.9878C41.956 12.6145 42.2845 12.293 42.6645 12.0991C42.5109 12.0757 42.3566 12.119 42.1639 12.1731C42.0918 12.1934 42.0139 12.2152 41.9291 12.2356C41.0427 12.4486 40.77 12.9878 40.4485 13.6236C40.2844 13.948 40.1076 14.2975 39.8301 14.6417C40.0752 14.1845 40.2055 13.775 40.3199 13.4157C40.5745 12.6157 40.7499 12.0644 41.9367 11.79C42.5021 11.6591 42.916 11.6084 43.2876 11.9095L43.311 11.9075L43.6029 11.8843C43.5543 11.6137 43.5021 11.3475 43.4503 11.0964C42.6653 10.9916 41.9399 11.0129 41.1352 11.1372C41.3088 11.0608 41.4772 10.9903 41.642 10.9286C41.5922 10.8769 41.5469 10.8054 41.5144 10.7276L41.5134 10.7254C41.4069 10.5163 41.3622 10.2805 41.3847 10.0463C41.4014 9.86889 41.4562 9.69736 41.5453 9.54373C41.5184 9.55004 41.4923 9.55818 41.4666 9.56837C41.2747 9.64554 40.8676 9.62131 40.6836 9.55696C41.0443 9.4975 41.5834 9.30161 41.9315 9.12954L41.9576 9.11732C42.1264 9.01148 42.3184 8.9496 42.5165 8.93717C42.7146 8.92474 42.9126 8.96213 43.0931 9.04605C43.2519 9.09382 43.4298 9.15846 43.6409 9.23517L43.6529 9.2395C43.3227 8.53941 42.9477 7.90427 42.4981 7.26874C42.0794 6.67707 41.727 6.46648 41.1163 6.1016L41.0862 6.08359C40.9491 6.00153 40.8146 5.91763 40.6842 5.8317C40.2189 5.74536 39.7012 5.65942 39.253 5.74617C39.6213 5.59956 39.8997 5.5407 40.2229 5.5126C39.586 5.05047 39.0122 4.54692 38.4157 4.02346C38.1777 3.81462 37.936 3.60252 37.6853 3.38871C34.2941 0.496917 31.551 0.702586 27.2338 2.60452C25.4805 3.37751 24.8541 4.15702 23.7742 5.55577L23.8083 5.55476C24.9056 5.52727 25.9952 5.48817 27.1222 5.38167C25.9568 5.65617 24.8412 5.87792 23.6983 6.05386C23.5722 6.07323 23.4548 6.09035 23.3448 6.10641C22.3513 6.25132 21.9518 6.30958 21.0937 7.15613C20.0208 8.21472 19.0543 9.35743 18.0984 10.4875C17.4903 11.2065 16.8864 11.9204 16.2623 12.6043C15.3655 13.5866 14.9031 14.5706 14.3813 15.681L14.3245 15.8018C13.7815 16.9564 13.8574 17.393 14.5834 18.3906C14.7428 18.6096 14.8887 18.8029 15.0226 18.9803C15.513 19.6301 15.8428 20.0671 16.0894 20.7796C16.6982 19.8273 17.3989 18.9943 18.1458 18.1066C18.4061 17.7971 18.6721 17.481 18.9417 17.1508C18.0899 18.5345 17.3137 19.8437 16.6103 21.2502C16.1725 22.1262 15.9574 22.5724 15.9704 23.5394C16.7936 24.5026 17.3092 25.0156 18.0734 25.2286C18.8966 25.4579 19.671 25.4198 20.4148 25.0288C20.8105 24.8209 21.202 24.5996 21.593 24.3784C23.0309 23.5654 24.4635 22.7554 26.0777 22.63C27.1371 20.7126 26.841 18.3022 26.4601 16.1207C26.1441 14.3102 26.2242 12.7121 26.6499 10.8946C26.7569 12.6593 26.8952 14.2984 27.2397 16.0294C27.7439 18.5641 27.8501 20.7531 26.7997 23.3727C24.9911 23.4171 23.4415 24.2816 21.8685 25.159C21.4669 25.3831 21.0637 25.608 20.6543 25.8203C19.7478 26.2903 18.9022 26.3376 17.8891 26.0932C16.8566 25.8444 16.0662 25.0363 15.0027 23.8567C15.1079 22.9625 15.2219 22.4089 15.535 21.754C15.2056 20.7488 14.8087 20.2149 14.1413 19.3172C14.0401 19.1811 13.9325 19.0364 13.8182 18.8807C12.8104 17.5078 12.794 16.9128 13.5543 15.3491C14.1049 14.2167 14.6197 13.1712 15.4867 12.1362C15.6596 11.9297 15.8296 11.726 15.9974 11.525L15.9988 11.5235C16.6614 10.7298 17.2894 9.97765 17.9227 9.25823C14.6203 9.76833 12.5115 10.5747 10.2554 12.5832C8.58296 14.0723 7.5404 15.9217 6.79531 18.0582C6.32522 19.4067 6.19214 20.7635 6.41394 22.9678C6.69957 25.8069 8.18733 29.0111 9.7873 31.3494C9.592 32.8037 9.33869 33.8997 8.93925 34.939C8.52303 36.0217 10.0054 36.4148 10.9281 36.6594C11.0119 36.6816 11.0911 36.7027 11.1639 36.7228L11.1649 36.7231C11.8754 36.9207 14.5613 37.6674 14.8275 36.7025C14.9877 36.1217 14.9871 35.7175 14.9469 35.1056C15.2833 34.4264 15.4553 34.159 15.646 33.8626C15.7275 33.7358 15.8125 33.6036 15.9152 33.4317C16.2817 32.8188 16.3114 32.572 16.3138 31.8515C16.3147 31.5765 16.3132 31.2375 16.3117 30.881C16.3079 30.0317 16.3037 29.0825 16.3303 28.6594C16.455 29.196 16.6035 29.9443 16.7255 30.6625C18.6376 31.0085 20.5355 30.9838 22.4472 30.5876C22.47 30.4606 22.5085 30.3244 22.5551 30.1591L22.5652 30.1233C22.6292 29.8963 22.7253 29.6693 22.8214 29.4423C22.9174 29.2157 23.0134 28.989 23.0774 28.7622C23.0429 29.2088 23.0084 29.6551 22.9735 30.1015C22.9377 30.5625 22.9353 30.9346 22.9915 31.3927L23.0843 32.1515C23.0203 32.0458 22.9407 31.9416 22.8611 31.8376C22.7667 31.7141 22.6725 31.5909 22.6045 31.4652L22.4239 31.5857C21.6823 32.0804 21.2239 32.3862 20.4498 32.8021C19.5666 33.277 20.5798 34.972 20.9446 35.5605C21.7458 36.8521 22.7027 38.3816 24.1917 37.5828C24.554 37.3887 24.8044 37.0059 25.0422 36.6425C25.1252 36.5157 25.2067 36.3912 25.2908 36.2779C25.5141 36.144 26.2307 35.5594 26.9269 34.9915C27.5909 34.4499 28.2365 33.9233 28.4173 33.8176C28.9368 33.514 30.8109 30.3994 31.0486 29.6224C31.1929 29.1495 31.3441 28.7076 31.491 28.278C31.8783 27.146 32.2362 26.0996 32.3619 24.7977C31.1684 24.29 30.5881 23.7251 29.7323 22.7049C30.9348 23.6081 31.9733 24.0927 33.269 24.5075L33.31 24.5443C33.7687 24.9558 34.232 25.3714 34.7126 25.8057L34.7775 25.8644L34.8474 25.9278C35.5158 26.5348 36.157 27.117 37.1325 27.1344C38.2586 27.1545 39.5342 26.2809 39.8614 25.1976L40.24 23.9455C40.0164 23.8905 39.7986 23.8304 39.5878 23.7642C39.4302 24.1475 39.3869 24.3726 39.342 24.6059C39.32 24.72 39.2977 24.836 39.2614 24.9734C39.0715 25.6898 38.101 26.1875 37.0826 25.9382L37.0813 25.9379C36.7196 25.8495 36.5079 25.7978 36.378 25.7028C36.482 25.9857 36.6793 26.2254 37.0515 26.2948C37.4621 26.3722 37.7634 26.4056 38.3608 26.2683C37.6227 26.6548 37.3855 26.6717 36.8626 26.554C35.4886 26.2441 35.9724 24.5645 36.2718 23.5378C36.4605 22.8909 36.3961 22.2054 36.2544 21.5573C36.3245 21.6021 36.3927 21.6463 36.4596 21.6896ZM31.1963 10.37C31.4539 9.21258 31.9115 8.09728 33.6833 7.23428C31.3348 7.83093 30.8944 8.83158 31.1963 10.37ZM46.1399 10.45C47.5307 9.94699 48.2011 8.81254 48.5341 7.47793C47.9898 8.59649 47.1497 9.53198 46.0086 10.105C45.4847 10.368 45.1227 10.3275 44.6009 10.2692C44.5127 10.2593 44.42 10.2489 44.3211 10.2394C44.4529 10.2778 44.5755 10.3181 44.6924 10.3564C45.1923 10.5205 45.5866 10.65 46.1399 10.45ZM36.6653 11.5843C36.4869 11.2049 36.1688 10.9117 35.7795 10.7679C36.1207 10.5832 36.4557 10.3892 36.7171 10.1479C36.3747 10.3086 36.0072 10.38 35.6468 10.45C35.2011 10.5365 34.7661 10.621 34.4027 10.8699C34.0789 11.0919 33.6862 11.5832 33.3 12.0662C32.996 12.4464 32.6961 12.8216 32.437 13.0563C32.863 12.8886 33.2734 12.5984 33.6514 12.2927C33.6535 12.583 33.7335 12.8673 33.8828 13.115C34.0322 13.3626 34.2452 13.5643 34.4991 13.6984C34.2816 13.9873 34.1085 14.3079 33.9856 14.6494C35.1054 13.3029 36.7291 12.286 38.2558 11.8512C37.8291 11.8451 37.3238 11.926 36.8092 12.0976C36.79 11.9195 36.7413 11.746 36.6653 11.5843ZM34.9626 22.3217L34.9625 22.3227C34.9302 22.5182 34.8978 22.7145 34.8706 22.8888C35.0161 22.4942 35.1912 22.0356 35.3604 21.6593C35.5297 21.2835 35.6291 21.2289 35.9596 21.0475L36.0216 21.0134C36.1566 20.9388 36.3466 20.8504 36.5366 20.7619C36.7266 20.6734 36.9167 20.5849 37.0517 20.5104C36.9129 20.5341 36.7192 20.5718 36.5255 20.6096C36.3317 20.6473 36.1371 20.6852 35.9983 20.7089C35.2564 20.836 35.1691 21.0168 35.0541 21.7581C35.027 21.9318 34.9948 22.1268 34.9626 22.3217ZM22.3808 8.29745C21.5197 9.16086 20.6833 12.1237 20.4161 13.3093C20.4754 13.1705 20.5472 12.9967 20.6292 12.7984C21.1289 11.5891 22.0043 9.47103 22.6985 8.86905C22.9217 8.6754 23.0777 8.55648 23.2453 8.46993C22.6707 9.44756 22.7088 9.69558 22.9083 10.9913L22.9123 11.0174C23.0722 9.77451 23.4765 9.23883 24.1321 8.37035C24.1836 8.30213 24.2367 8.23182 24.2913 8.15898C25.113 7.94985 25.8822 7.69918 26.7253 7.36563C25.7758 7.47453 24.8253 7.57459 23.874 7.66578L23.7663 7.67602C23.0625 7.7426 22.9206 7.75605 22.3808 8.29745Z" fill="#73A0FF"/>
<path d="M32.4757 34.6796C33.3762 34.6955 33.718 34.6268 33.8092 33.5865C33.8537 33.0774 33.8146 32.9819 33.5631 32.5355L33.4968 30.1463C33.476 29.3914 33.3328 28.9567 33.0404 28.2529C32.9095 27.9384 32.8234 27.6396 32.738 27.3434L32.7377 27.3421C32.7089 27.2424 32.6801 27.1422 32.6498 27.0425C32.4953 27.6024 32.3094 28.1437 32.1169 28.7044C31.9832 29.0938 31.8464 29.4924 31.7146 29.9129C31.4105 30.8845 29.8513 33.706 28.9336 34.3894C29.112 34.5246 29.44 34.5776 30.0241 34.6287C30.3403 34.6562 31.3673 34.6671 32.016 34.674C32.2155 34.6761 32.3795 34.6779 32.4757 34.6796Z" fill="#73A0FF"/>
<path d="M8.86698 31.4498C7.76641 29.7602 6.77363 27.7506 6.19093 25.7055L5.86716 26.5817L4.38943 28.0994C4.35747 28.1323 4.32775 28.1624 4.30019 28.1903L4.29901 28.1915C4.01302 28.4812 3.95922 28.5357 4.02612 29.0194C4.12709 29.748 4.55081 30.5245 5.1839 31.1806C5.76319 31.7801 7.76401 33.3474 8.55084 32.2796C8.71805 32.0525 8.79773 31.7699 8.86698 31.4793V31.4498Z" fill="#73A0FF"/>
<path d="M4.0493 13.6505C4.26272 13.443 4.48636 13.257 4.69706 13.1016L5.05369 12.8969C4.91703 13.1963 4.81864 13.4298 4.75054 13.6695C4.64216 14.0492 4.62559 14.4149 4.60979 14.7636C4.57984 15.4246 4.55263 16.0251 3.9087 16.5467C3.96972 16.6716 4.02234 16.7866 4.07014 16.8911C4.38446 17.5782 4.49165 17.8126 5.42497 17.4331C5.83966 17.2641 6.1817 17.0279 6.4872 16.7481C6.33931 17.1378 6.20336 17.5321 6.07953 17.9304C6.05825 17.9976 6.03798 18.0654 6.01851 18.1326C5.24953 18.4637 4.23809 18.674 3.85109 17.8542C3.66386 17.4575 3.55776 17.0682 3.42134 16.5677L3.41994 16.5626C3.37958 16.5201 3.34243 16.4773 3.30836 16.4341C3.30825 16.432 3.30815 16.4299 3.30805 16.4279L3.03369 15.8786C3.02407 15.8377 3.01649 15.7967 3.01086 15.7555L3.2047 14.7618C3.2558 14.6567 3.31495 14.5529 3.38052 14.451L4.0493 13.6505Z" fill="#73A0FF"/>
<path d="M5.21682 14.011C5.41895 13.9878 5.544 14.0951 5.70036 14.254C5.67146 13.8752 5.60241 13.5942 5.34026 13.4392C5.3218 13.5009 5.30453 13.5624 5.28848 13.6251C5.25656 13.7469 5.23388 13.8766 5.21682 14.011Z" fill="#73A0FF"/>
<path d="M43.8139 9.59402C43.7677 9.48874 43.7207 9.38469 43.6729 9.28246C43.5931 9.28409 43.5157 9.28654 43.4403 9.28939C43.553 9.40228 43.6431 9.53631 43.7055 9.68403C43.7394 9.65247 43.7757 9.62253 43.8139 9.59402Z" fill="#73A0FF"/>
</svg>
