<svg width="36" height="36" viewBox="0 0 36 36" fill="none" xmlns="http://www.w3.org/2000/svg">
<path d="M23.739 0C23.5251 0.00024419 23.3155 0.0594091 23.133 0.171C22.569 0.504 21.63 1.4475 20.511 2.8155L20.277 3.1035C19.98 3.4725 19.6725 3.8715 19.356 4.293C18.2797 5.73101 17.2707 7.2181 16.332 8.7495L16.299 8.8035L16.233 8.9115C15.3126 10.4145 14.4573 11.9564 13.6695 13.533C13.0504 14.7806 12.4996 16.061 12.0195 17.3685C11.883 17.745 11.7585 18.108 11.6445 18.4575C11.5515 18.756 11.4615 19.0545 11.3775 19.3515C11.178 20.052 11.0055 20.7525 10.8645 21.4485L10.866 21.4515L10.8465 21.543C10.6785 22.3811 10.5617 23.2287 10.497 24.081L10.4895 24.1695C10.0695 23.496 8.94601 22.8405 8.94751 22.8465C9.75301 24.0135 10.3635 25.1715 10.4535 26.3085C10.023 26.397 9.43201 26.2695 8.74951 26.0175C9.46051 26.6715 9.99451 26.8515 10.203 26.8995C9.54901 26.94 8.86951 27.39 8.18401 27.906C9.18601 27.4965 9.99601 27.336 10.5765 27.4665C9.59065 30.2892 8.66891 33.134 7.81201 35.9985C7.93988 35.9621 8.05672 35.8946 8.15202 35.8019C8.24732 35.7092 8.3181 35.5943 8.35801 35.4675C8.52301 34.914 9.61351 31.2885 11.3235 26.5215L11.4705 26.112L11.5125 25.998C11.6925 25.4985 11.88 24.9885 12.0735 24.468L12.207 24.1125L12.21 24.105L11.304 22.3155L12.21 24.1035C12.3885 23.628 12.57 23.1465 12.7575 22.659L12.8355 22.455L12.915 22.2495L12.9765 22.0935L12.915 22.251L12.8355 22.455L12.7575 22.659C12.57 23.1465 12.3885 23.628 12.21 24.1035L12.369 24.4155L12.51 24.4005L12.525 24.3585C12.7545 23.733 12.981 23.1225 13.206 22.5285L13.2135 22.5075C12.9806 23.123 12.7516 23.7401 12.5265 24.3585L12.5115 24.4005L12.411 24.675C12.234 25.1625 12.0555 25.6575 11.877 26.1645L11.8695 26.187L11.793 26.4015C11.673 26.7435 11.568 27.051 11.3295 27.75C11.724 27.93 12.0405 28.404 12.3405 28.941C12.3116 28.3738 12.0605 27.8409 11.6415 27.4575C13.5855 27.5445 15.261 27.054 16.128 25.632C16.206 25.5045 16.2765 25.3725 16.3395 25.23C15.9465 25.7295 15.4575 25.941 14.5395 25.8885C15.8925 25.2825 16.5705 24.702 17.1705 23.739C17.3217 23.4937 17.4624 23.2419 17.592 22.9845C16.4085 24.1995 15.039 24.5445 13.5945 24.282H13.5915L13.53 24.2715C14.8245 24.111 16.545 23.1435 17.658 21.9495C18.171 21.399 18.636 20.7495 19.0665 19.9905C19.3875 19.425 19.6875 18.798 19.974 18.1035C20.2245 17.4975 20.4645 16.8405 20.697 16.128C20.3157 16.3231 19.9055 16.4553 19.482 16.5195C19.4132 16.5315 19.3442 16.5425 19.275 16.5525L19.278 16.551L19.2825 16.5495C19.35 16.539 19.416 16.53 19.482 16.518C19.5495 16.506 19.617 16.494 19.683 16.479L19.4835 16.515L19.2855 16.5495C20.4885 16.0845 21.2475 15.189 21.7995 14.094C21.3589 14.3938 20.8666 14.6095 20.3475 14.73C20.2624 14.7478 20.1769 14.7633 20.091 14.7765L20.0265 14.7855L20.028 14.784L20.0415 14.7825L20.0895 14.775C20.1684 14.7627 20.2469 14.7482 20.325 14.7315L20.346 14.727L20.322 14.7315L20.031 14.781C20.448 14.6055 20.8005 14.4105 21.1065 14.1795C21.331 14.0049 21.5375 13.8085 21.723 13.593C21.843 13.4505 21.9555 13.296 22.0605 13.128L22.1565 12.972L22.272 12.744C22.4778 12.3282 22.662 11.9022 22.824 11.4675L22.8705 11.3355C22.9125 11.208 22.9485 11.094 22.9755 10.995C23.016 10.8465 23.0415 10.728 23.055 10.641C23.0106 10.6766 22.9634 10.7087 22.914 10.737C22.5495 10.9545 21.924 11.1525 21.42 11.2455L21.2715 11.262L21.27 11.2635L17.8695 11.637L17.8515 11.673L17.736 11.91L17.3835 12.642L17.3175 12.7815L17.3835 12.642C17.502 12.393 17.619 12.1485 17.736 11.91L17.8515 11.673C17.8575 11.6595 17.865 11.6475 17.8695 11.634L17.7435 11.6475L17.643 11.4495C17.451 11.8295 17.262 12.211 17.076 12.594L16.77 13.23C16.202 14.4229 15.6559 15.6261 15.132 16.839C14.5736 18.133 14.0331 19.4346 13.5105 20.7435L13.6395 20.4195C14.1215 19.2196 14.6191 18.026 15.132 16.839C15.6562 15.6257 16.2023 14.422 16.77 13.2285L17.076 12.5925C17.253 12.2265 17.4315 11.865 17.613 11.5065L17.643 11.4495C17.9295 10.8825 18.219 10.3245 18.5115 9.7755C18.8235 9.1905 19.1415 8.619 19.461 8.064C19.7859 7.49793 20.122 6.93832 20.469 6.3855L20.529 6.2895C20.865 5.7585 21.204 5.247 21.5445 4.758C22.2354 3.75435 22.9984 2.80234 23.8275 1.9095L23.7405 2.0025C23.5005 2.2665 22.7745 3.114 21.678 4.797C22.734 4.7445 24.3555 4.5285 25.6785 4.302C26.0715 2.097 25.293 1.089 25.293 1.089C25.293 1.089 24.627 0.0105 23.745 0.0015L23.739 0ZM21.267 11.2605C22.257 10.8045 22.701 10.392 23.13 9.7965C23.244 9.6315 23.3595 9.4605 23.4735 9.282C23.823 8.7375 24.165 8.136 24.471 7.539C24.7665 6.963 25.0275 6.3915 25.227 5.8755C25.3434 5.58122 25.4436 5.28077 25.527 4.9755C25.5885 4.74 25.638 4.515 25.6755 4.302C24.351 4.527 22.7295 4.7445 21.6735 4.7955C21.3132 5.34874 20.9651 5.90988 20.6295 6.4785C20.3235 6.996 19.9965 7.563 19.6545 8.184C19.0285 9.31793 18.4318 10.4678 17.865 11.6325L21.2655 11.259L21.267 11.2605ZM26.709 3.297V3.396H26.943V4.0545H27.051V3.396H27.2865V3.297H26.7105H26.709ZM27.4035 3.297V4.056H27.5025V3.4545L27.7605 3.9765H27.8295L28.0875 3.4545V4.056H28.1865V3.297H28.056L27.795 3.8265L27.5325 3.297H27.402H27.4035ZM21.3915 11.2485L21.2385 11.2725L21.24 11.271L21.39 11.247L21.3915 11.2485ZM21.2565 11.2665L21.249 11.2695L21.2565 11.2665ZM17.1465 13.1295L16.9875 13.47L16.788 13.9005C16.3122 14.9362 15.8517 15.9788 15.4065 17.028C14.8898 18.2439 14.3903 19.467 13.908 20.697C13.686 21.264 13.461 21.8445 13.2345 22.4415L13.227 22.4625C14.2999 19.5619 15.4878 16.7051 16.788 13.899L16.9875 13.4685L17.1465 13.1295V13.1295Z" fill="#73A0FF"/>
</svg>
