<svg width="50" height="29" viewBox="0 0 50 29" fill="none" xmlns="http://www.w3.org/2000/svg">
<path d="M13.834 10.8673C13.834 11.4832 13.9005 11.9824 14.0164 12.3486C14.1637 12.7605 14.3409 13.161 14.5468 13.5468C14.6297 13.6799 14.6628 13.813 14.6628 13.9296C14.6628 14.0959 14.5634 14.2624 14.3479 14.4289L13.3036 15.1278C13.1544 15.2277 13.0052 15.2776 12.8724 15.2776C12.7068 15.2776 12.5409 15.1943 12.3751 15.0445C12.1518 14.8036 11.952 14.5416 11.7784 14.2624C11.6126 13.9797 11.4468 13.6632 11.2645 13.2805C9.97147 14.8115 8.34676 15.5772 6.39077 15.5772C4.99838 15.5772 3.8876 15.1776 3.07525 14.379C2.26309 13.5799 1.84869 12.5149 1.84869 11.1836C1.84869 9.76903 2.346 8.62072 3.35724 7.75531C4.36829 6.8899 5.7112 6.45719 7.41863 6.45719C7.98224 6.45719 8.56246 6.50706 9.17574 6.5903C9.78921 6.67355 10.4191 6.80666 11.0823 6.95645V5.74158C11.0823 4.47665 10.8169 3.59475 10.3029 3.0788C9.77259 2.56285 8.87732 2.31312 7.6009 2.31312C7.02067 2.31312 6.42402 2.37988 5.81054 2.52967C5.19727 2.67927 4.60042 2.86245 4.02019 3.09549C3.75501 3.21191 3.55613 3.27846 3.43997 3.31184C3.324 3.34521 3.24108 3.36171 3.17479 3.36171C2.94266 3.36171 2.82669 3.19522 2.82669 2.84576V2.03022C2.82669 1.764 2.85993 1.56433 2.94266 1.44791C3.02557 1.33129 3.17479 1.21487 3.40692 1.09845C3.98714 0.798854 4.68334 0.549126 5.4955 0.349462C6.30805 0.13311 7.17008 0.0333756 8.08178 0.0333756C10.0546 0.0333756 11.4968 0.482572 12.4252 1.38136C13.3369 2.27994 13.8011 3.64461 13.8011 5.47536V10.8673H13.8344H13.834ZM7.10359 13.397C7.65076 13.397 8.21437 13.2972 8.81102 13.0974C9.40787 12.8977 9.93842 12.5315 10.3859 12.0323C10.6512 11.7162 10.8501 11.3667 10.9495 10.9672C11.049 10.5679 11.1153 10.0851 11.1153 9.5193V8.82038C10.6126 8.69754 10.1034 8.60309 9.59013 8.53747C9.07331 8.47157 8.55288 8.4382 8.03191 8.43754C6.92113 8.43754 6.10897 8.65389 5.56199 9.10329C5.01481 9.55268 4.74963 10.185 4.74963 11.0171C4.74963 11.7992 4.94852 12.3817 5.36291 12.7813C5.76087 13.1973 6.3411 13.397 7.10359 13.397ZM20.4152 15.1943C20.1167 15.1943 19.9178 15.1445 19.7853 15.0278C19.6527 14.9281 19.5365 14.6951 19.4372 14.379L15.5416 1.51447C15.4419 1.1815 15.3922 0.965143 15.3922 0.848721C15.3922 0.582502 15.5248 0.432508 15.7902 0.432508L17.4147 0.432508C17.7295 0.432508 17.9452 0.482572 18.0612 0.598993C18.1938 0.698924 18.2933 0.931964 18.3927 1.24805L21.1776 12.2653L23.7637 1.24805C23.8467 0.915276 23.9462 0.698924 24.0786 0.598993C24.2114 0.499259 24.4435 0.432705 24.7419 0.432705L26.068 0.432705C26.3829 0.432705 26.5986 0.482572 26.731 0.598993C26.8638 0.698924 26.9797 0.931964 27.046 1.24805L29.6653 12.3984L32.533 1.24805C32.6324 0.915276 32.7485 0.698924 32.8645 0.598993C32.9971 0.499259 33.2126 0.432705 33.511 0.432705L35.0526 0.432705C35.318 0.432705 35.4672 0.565814 35.4672 0.848721C35.4672 0.931964 35.4506 1.01521 35.434 1.11494C35.4173 1.21487 35.3843 1.34798 35.318 1.53115L31.3227 14.3955C31.2234 14.7284 31.1074 14.9448 30.9746 15.0445C30.842 15.1445 30.6265 15.211 30.3449 15.211H28.9193C28.6042 15.211 28.3887 15.1612 28.2559 15.0445C28.1234 14.9281 28.0074 14.7118 27.9411 14.379L25.3714 3.64461L22.8186 14.3621C22.7359 14.6951 22.6363 14.9114 22.5037 15.0278C22.3711 15.1445 22.139 15.1943 21.8408 15.1943H20.415H20.4152ZM41.7169 15.6437C40.8549 15.6437 39.9929 15.5438 39.1641 15.3441C38.3351 15.1445 37.6888 14.9279 37.2578 14.6786C36.9924 14.5286 36.8099 14.3623 36.7438 14.2125C36.6793 14.0656 36.6454 13.907 36.6443 13.7464V12.8977C36.6443 12.5482 36.7769 12.3818 37.0256 12.3818C37.1272 12.3821 37.2279 12.399 37.3241 12.4318C37.4234 12.4652 37.5726 12.5315 37.7385 12.5981C38.324 12.8566 38.9352 13.0519 39.5619 13.1806C40.2112 13.3129 40.8721 13.3798 41.5347 13.3803C42.579 13.3803 43.3913 13.1973 43.9549 12.8311C44.5185 12.465 44.8169 11.9326 44.8169 11.2501C44.8169 10.7842 44.6677 10.4014 44.3693 10.0851C44.0709 9.76903 43.5073 9.48612 42.6951 9.21971L40.2913 8.47092C39.0812 8.08808 38.1861 7.52227 37.6389 6.77328C37.0919 6.04098 36.8101 5.22563 36.8101 4.36023C36.8101 3.6613 36.9593 3.04542 37.2578 2.51279C37.556 1.98035 37.954 1.51447 38.4513 1.14832C38.9486 0.765479 39.5122 0.482572 40.1753 0.282907C40.8383 0.0832426 41.5345 0 42.2639 0C42.6286 0 43.01 0.0166878 43.3747 0.0665548C43.756 0.116422 44.1041 0.182977 44.4522 0.249532C44.7837 0.332774 45.0987 0.416017 45.3972 0.515947C45.6956 0.615681 45.9275 0.715612 46.0934 0.815346C46.3255 0.948652 46.4911 1.08176 46.5907 1.23156C46.6902 1.36467 46.7399 1.54765 46.7399 1.78069V2.56285C46.7399 2.91231 46.6073 3.09549 46.3585 3.09549C46.226 3.09549 46.0104 3.02874 45.7288 2.89563C44.7837 2.46292 43.7228 2.24657 42.5459 2.24657C41.601 2.24657 40.8549 2.39637 40.341 2.71265C39.8272 3.02874 39.5619 3.5115 39.5619 4.19374C39.5619 4.65982 39.7277 5.05915 40.0592 5.37543C40.3908 5.69152 41.0041 6.0078 41.8828 6.29071L44.2367 7.0397C45.4302 7.42253 46.2922 7.95497 46.8062 8.63721C47.3201 9.31964 47.5689 10.1018 47.5689 10.9672C47.5689 11.6828 47.4195 12.3319 47.1377 12.8977C46.8394 13.4635 46.4415 13.9628 45.9275 14.3623C45.4136 14.7783 44.8003 15.0779 44.0875 15.2943C43.3414 15.5273 42.5623 15.6437 41.7169 15.6437V15.6437Z" fill="#73A0FF"/>
<path d="M45.0622 22.5017C39.6084 26.5458 31.6843 28.6927 24.8712 28.6927C15.3226 28.6927 6.71912 25.1478 0.22086 19.2564C-0.293072 18.7905 0.170992 18.1582 0.784268 18.5241C7.81308 22.6183 16.483 25.0979 25.4514 25.0979C31.502 25.0979 38.1495 23.8332 44.2666 21.237C45.1783 20.8208 45.9574 21.8362 45.0622 22.5017V22.5017ZM47.3334 19.9055C46.6372 19.0069 42.7248 19.4728 40.9511 19.6891C40.4206 19.7559 40.3376 19.2898 40.8185 18.9403C43.935 16.7434 49.0575 17.376 49.6541 18.1081C50.251 18.8571 49.4883 23.9995 46.5707 26.4626C46.1233 26.8454 45.6923 26.6458 45.8911 26.1465C46.5541 24.4988 48.0296 20.7876 47.3334 19.9055V19.9055Z" fill="#73A0FF"/>
</svg>
