<svg width="33" height="33" viewBox="0 0 33 33" fill="none" xmlns="http://www.w3.org/2000/svg">
<path d="M16.5 12.8333C18.535 12.8333 20.1667 14.4833 20.1667 16.5C20.1667 18.535 18.535 20.1667 16.5 20.1667C14.4833 20.1667 12.8333 18.535 12.8333 16.5C12.8333 14.4833 14.4833 12.8333 16.5 12.8333ZM3.66667 0H29.3333C31.3683 0 33 1.65 33 3.66667V25.6667H25.4833C27.8667 23.3383 29.3333 20.0933 29.3333 16.5C29.3333 9.405 23.595 3.66667 16.5 3.66667C9.405 3.66667 3.66667 9.405 3.66667 16.5C3.66667 23.595 9.405 29.3333 16.5 29.3333H33C33 31.3683 31.3683 33 29.3333 33H3.66667C1.65 33 0 31.3683 0 29.3333V3.66667C0 1.65 1.65 0 3.66667 0Z" fill="#73A0FF"/>
</svg>
