<svg width="46" height="35" viewBox="0 0 46 35" fill="none" xmlns="http://www.w3.org/2000/svg">
<path d="M16.2759 0.459996C14.112 -0.459996 12.4138 1.38191 11.1776 5.98953L9.38039 10.6402C12.1858 15.4304 17.3175 18.4253 24.7754 19.623C32.2022 20.8179 36.5535 19.6366 37.8255 16.0808C37.531 14.7015 37.1414 12.567 36.6575 9.67717C36.0384 5.98953 34.8041 3.83905 32.9507 3.22572L26.4648 0.459996C24.6133 -0.153332 23.2237 -0.153332 22.2961 0.459996C20.9065 1.38191 19.5169 1.84382 16.2759 0.459996Z" fill="#73A0FF"/>
<path d="M37.9971 16.8447C38.3739 19.1037 38.3239 20.6304 37.847 21.4247C36.0952 24.3514 31.3093 25.1985 26.1746 24.5795C18.7054 23.6786 13.2563 21.2752 9.8332 17.3729C8.89979 16.1711 8.43213 15.1208 8.43213 14.2181C8.43213 13.6093 8.57392 12.864 8.8581 11.981C3.611 11.9819 0.677991 13.6704 0.0609919 17.0486C-0.866667 22.1182 8.86225 30.8734 24.1495 33.6372C39.4367 36.4029 46.8484 30.8734 45.9226 25.3439C45.3035 21.6582 42.6796 18.8924 38.0471 17.0486C38.0309 16.984 38.0142 16.916 37.9971 16.8447Z" fill="#73A0FF"/>
</svg>
