<svg width="50" height="38" viewBox="0 0 50 38" fill="none" xmlns="http://www.w3.org/2000/svg">
<g clip-path="url(#clip0)">
<path d="M48.4149 14.2817C47.3081 13.4847 44.7716 13.1858 42.7887 13.5843C42.5583 11.5917 41.4975 9.84835 39.6528 8.30408L38.5922 7.50703L37.8542 8.65278C36.932 10.1472 36.4708 12.2395 36.6091 14.2321C36.6551 14.9293 36.8857 16.1747 37.5775 17.2707C36.932 17.6692 35.5945 18.1673 33.8422 18.1673H0.499994L0.407836 18.5659C0.0848967 20.5583 0.0848965 26.785 3.86647 31.5671C6.72569 35.2034 10.9684 37.0466 16.5484 37.0466C28.6308 37.0466 37.5775 31.0189 41.7742 20.1099C43.4344 20.1597 46.9853 20.1099 48.784 16.3738C48.83 16.2741 48.9222 16.0749 49.2449 15.3279L49.4295 14.9293L48.4149 14.2817ZM27.1551 0.234375H22.0826V5.21572H27.1551V0.234375ZM27.1551 6.21203H22.0826V11.1934H27.1551V6.21183V6.21203ZM21.16 6.21203H16.0875V11.1934H21.16V6.21183V6.21203ZM15.1649 6.21203H10.0922V11.1934H15.1649V6.21183V6.21203ZM9.16981 12.1897H4.09706V17.171H9.16962V12.1895L9.16981 12.1897ZM15.1649 12.1897H10.0922V17.171H15.1649V12.1895V12.1897ZM21.16 12.1897H16.0875V17.171H21.16V12.1895V12.1897ZM27.1553 12.1897H22.0824V17.171H27.1553V12.1895V12.1897ZM33.1504 12.1897H28.0775V17.171H33.1504V12.1895V12.1897Z" fill="#73A0FF"/>
</g>
<defs>
<clipPath id="clip0">
<rect width="49.1512" height="36.8634" fill="white" transform="translate(0.278015 0.234375)"/>
</clipPath>
</defs>
</svg>
